<svg width="20" height="20" viewBox="0 0 50 50" fill="none" xmlns="http://www.w3.org/2000/svg">
<path d="M35.475 0H14.525C5.425 0 0 5.425 0 14.525V35.45C0 44.575 5.425 50 14.525 50H35.45C44.55 50 49.975 44.575 49.975 35.475V14.525C50 5.425 44.575 0 35.475 0ZM16.175 22.45C16.9 21.725 18.1 21.725 18.825 22.45L23.125 26.75V11.275C23.125 10.25 23.975 9.4 25 9.4C26.025 9.4 26.875 10.25 26.875 11.275V26.75L31.175 22.45C31.9 21.725 33.1 21.725 33.825 22.45C34.55 23.175 34.55 24.375 33.825 25.1L26.325 32.6C26.15 32.775 25.95 32.9 25.725 33C25.5 33.1 25.25 33.15 25 33.15C24.75 33.15 24.525 33.1 24.275 33C24.05 32.9 23.85 32.775 23.675 32.6L16.175 25.1C15.45 24.375 15.45 23.2 16.175 22.45ZM40.6 38.05C35.575 39.725 30.3 40.575 25 40.575C19.7 40.575 14.425 39.725 9.4 38.05C8.425 37.725 7.9 36.65 8.225 35.675C8.55 34.7 9.6 34.15 10.6 34.5C19.9 37.6 30.125 37.6 39.425 34.5C40.4 34.175 41.475 34.7 41.8 35.675C42.1 36.675 41.575 37.725 40.6 38.05Z" fill="#4166F5"/>
</svg>
