<svg width="20" height="20" viewBox="0 0 50 50" fill="none" xmlns="http://www.w3.org/2000/svg">
<path d="M35.475 0H14.525C5.425 0 0 5.425 0 14.525V35.45C0 44.575 5.425 50 14.525 50H35.45C44.55 50 49.975 44.575 49.975 35.475V14.525C50 5.425 44.575 0 35.475 0ZM16.175 17.45L23.675 9.95C23.85 9.775 24.05 9.65 24.275 9.55C24.725 9.35 25.25 9.35 25.7 9.55C25.925 9.65 26.125 9.775 26.3 9.95L33.8 17.45C34.525 18.175 34.525 19.375 33.8 20.1C33.425 20.475 32.95 20.65 32.475 20.65C32 20.65 31.525 20.475 31.15 20.1L26.85 15.8V31.275C26.85 32.3 26 33.15 24.975 33.15C23.95 33.15 23.1 32.3 23.1 31.275V15.8L18.8 20.1C18.075 20.825 16.875 20.825 16.15 20.1C15.425 19.375 15.45 18.2 16.175 17.45ZM40.6 38.05C35.575 39.725 30.3 40.575 25 40.575C19.7 40.575 14.425 39.725 9.4 38.05C8.425 37.725 7.9 36.65 8.225 35.675C8.55 34.7 9.625 34.15 10.6 34.5C19.9 37.6 30.125 37.6 39.425 34.5C40.4 34.175 41.475 34.7 41.8 35.675C42.1 36.675 41.575 37.725 40.6 38.05Z" fill="#03C75A"/>
</svg>
