<svg width="15" height="11" viewBox="0 0 15 11" fill="none" xmlns="http://www.w3.org/2000/svg">
<path id="Vector" d="M12.2395 0.375362C12.4773 0.14904 12.7936 0.02392 13.1218 0.0264035C13.4501 0.0288869 13.7645 0.15878 13.9988 0.388674C14.233 0.618567 14.3688 0.93048 14.3775 1.25859C14.3862 1.58671 14.267 1.90536 14.0452 2.14731L7.31183 10.5683C7.19605 10.693 7.05631 10.7931 6.90096 10.8626C6.74562 10.932 6.57786 10.9695 6.40772 10.9726C6.23757 10.9758 6.06855 10.9446 5.91073 10.8809C5.75292 10.8172 5.60957 10.7224 5.48925 10.6021L1.02393 6.13674C0.89958 6.02087 0.799841 5.88113 0.730664 5.72588C0.661487 5.57062 0.624289 5.40302 0.621291 5.23308C0.618292 5.06314 0.649554 4.89433 0.713211 4.73673C0.776868 4.57913 0.871616 4.43597 0.991803 4.31578C1.11199 4.19559 1.25515 4.10085 1.41275 4.03719C1.57035 3.97353 1.73916 3.94227 1.9091 3.94527C2.07905 3.94827 2.24664 3.98547 2.4019 4.05464C2.55716 4.12382 2.69689 4.22356 2.81276 4.34791L6.34654 7.88L12.2075 0.412489C12.218 0.399497 12.2293 0.387101 12.2412 0.375362H12.2395Z" fill="white"/>
</svg>
