<svg width="18" height="18" viewBox="0 0 24 25" fill="none" xmlns="http://www.w3.org/2000/svg">
<path d="M3 8.13331C3 6.45316 3 5.61308 3.32698 4.97134C3.6146 4.40686 4.07354 3.94791 4.63803 3.66029C5.27976 3.33331 6.11984 3.33331 7.8 3.33331H16.2C17.8802 3.33331 18.7202 3.33331 19.362 3.66029C19.9265 3.94791 20.3854 4.40686 20.673 4.97134C21 5.61308 21 6.45316 21 8.13331V16.5333C21 18.2135 21 19.0535 20.673 19.6953C20.3854 20.2598 19.9265 20.7187 19.362 21.0063C18.7202 21.3333 17.8802 21.3333 16.2 21.3333H7.8C6.11984 21.3333 5.27976 21.3333 4.63803 21.0063C4.07354 20.7187 3.6146 20.2598 3.32698 19.6953C3 19.0535 3 18.2135 3 16.5333V8.13331Z" fill="#6495ED" stroke="#6495ED" stroke-width="2" stroke-linecap="round" stroke-linejoin="round"/>
<path d="M5 12.4603L9.3077 16.9047L19 6.90472" stroke="white" stroke-width="2" stroke-linecap="round" stroke-linejoin="round"/>
</svg>
