<svg width="21" height="20" viewBox="0 0 21 20" fill="none" xmlns="http://www.w3.org/2000/svg">
<path id="Vector" fill-rule="evenodd" clip-rule="evenodd" d="M11.6339 2.13389C12.122 1.64573 12.122 0.854276 11.6339 0.366113C11.1458 -0.122038 10.3543 -0.122038 9.86614 0.366113L1.11611 9.11614C0.8817 9.35051 0.75 9.66852 0.75 10C0.75 10.3315 0.8817 10.6495 1.11611 10.8839L9.86614 19.6339C10.3543 20.122 11.1458 20.122 11.6339 19.6339C12.122 19.1458 12.122 18.3543 11.6339 17.8662L3.76777 10L11.6339 2.13389ZM20.3839 2.13389C20.872 1.64573 20.872 0.854276 20.3839 0.366113C19.8958 -0.122038 19.1043 -0.122038 18.6162 0.366113L9.86614 9.11614C9.63176 9.35051 9.50001 9.66852 9.50001 10C9.50001 10.3315 9.63176 10.6495 9.86614 10.8839L18.6162 19.6339C19.1043 20.122 19.8958 20.122 20.3839 19.6339C20.872 19.1458 20.872 18.3543 20.3839 17.8662L12.5178 10L20.3839 2.13389Z" fill="#4166F5"/>
</svg>
