<svg width="16" height="28" viewBox="0 0 16 28" fill="none" xmlns="http://www.w3.org/2000/svg">
<path d="M13.1109 6.52061V20.8554C13.1109 23.6102 10.8238 25.8415 8.00004 25.8415C5.17631 25.8415 2.88921 23.6102 2.88921 20.8554V5.27411C2.88921 3.55393 4.32024 2.15784 6.08348 2.15784C7.84671 2.15784 9.27774 3.55393 9.27774 5.27411V18.3624C9.27774 19.048 8.70277 19.6089 8.00004 19.6089C7.2973 19.6089 6.72233 19.048 6.72233 18.3624V6.52061H4.80577V18.3624C4.80577 20.0826 6.2368 21.4787 8.00004 21.4787C9.76327 21.4787 11.1943 20.0826 11.1943 18.3624V5.27411C11.1943 2.51933 8.90721 0.288086 6.08348 0.288086C3.25975 0.288086 0.972656 2.51933 0.972656 5.27411V20.8554C0.972656 24.6448 4.11581 27.7112 8.00004 27.7112C11.8843 27.7112 15.0274 24.6448 15.0274 20.8554V6.52061H13.1109Z" fill="#4166F5"/>
</svg>
