<svg width="16" height="16" viewBox="0 0 28 28" fill="none" xmlns="http://www.w3.org/2000/svg">
<path d="M1.48713 1.51592C0.510802 2.49224 0.510802 4.07514 1.48713 5.05147L10.45 14.0143L1.48713 22.9773C0.510802 23.9535 0.510802 25.5365 1.48713 26.5128C2.46343 27.489 4.04635 27.489 5.02265 26.5128L13.9855 17.5498L22.9485 26.5128C23.9247 27.489 25.5077 27.489 26.484 26.5128C27.4602 25.5365 27.4602 23.9535 26.484 22.9773L17.521 14.0143L26.484 5.05149C27.4602 4.07519 27.4602 2.49227 26.484 1.51597C25.5075 0.539642 23.9247 0.539642 22.9485 1.51597L13.9855 10.4788L5.02265 1.51592C4.04635 0.539616 2.46343 0.539616 1.48713 1.51592Z" fill="white"/>
</svg>
