<svg width="18" height="18" viewBox="0 0 18 18" fill="none" xmlns="http://www.w3.org/2000/svg">
<path fill-rule="evenodd" clip-rule="evenodd" d="M17.16 8.85992C17.16 8.25719 17.1059 7.67764 17.0055 7.12128H9V10.4092H13.5746C13.3775 11.4717 12.7786 12.372 11.8784 12.9747V15.1074H14.6255C16.2327 13.6277 17.16 11.4486 17.16 8.85992Z" fill="#4285F4"/>
<path fill-rule="evenodd" clip-rule="evenodd" d="M9.00022 17.1667C11.2952 17.1667 13.2193 16.4056 14.6257 15.1074L11.8786 12.9747C11.1175 13.4847 10.1439 13.7861 9.00022 13.7861C6.78635 13.7861 4.91248 12.2908 4.24407 10.2817H1.4043V12.484C2.80294 15.262 5.67749 17.1667 9.00022 17.1667Z" fill="#34A853"/>
<path fill-rule="evenodd" clip-rule="evenodd" d="M4.24387 10.2818C4.07387 9.77177 3.97728 9.22699 3.97728 8.66677C3.97728 8.10654 4.07387 7.56176 4.24387 7.05176V4.84949H1.40409C0.82841 5.99699 0.5 7.29517 0.5 8.66677C0.5 10.0384 0.82841 11.3365 1.40409 12.484L4.24387 10.2818Z" fill="#FBBC05"/>
<path fill-rule="evenodd" clip-rule="evenodd" d="M9.00022 3.54744C10.2482 3.54744 11.3686 3.9763 12.2495 4.81857L14.6875 2.38062C13.2155 1.00902 11.2914 0.166748 9.00022 0.166748C5.67748 0.166748 2.80294 2.07152 1.4043 4.84948L4.24407 7.05176C4.91248 5.04267 6.78635 3.54744 9.00022 3.54744Z" fill="#EA4335"/>
</svg>
