<svg width="26" height="26" viewBox="0 0 26 26" fill="none" xmlns="http://www.w3.org/2000/svg">
<path d="M3.11642 2.28537H20.2593V9.78543H22.4024V0.142578H0.973633V25.8569H8.47369V23.7142H3.11642V2.28537Z" fill="white"/>
<path d="M5.25977 4.42773H18.1171V6.57053H5.25977V4.42773ZM5.25977 8.71361H15.974V10.8564H5.25977V8.71361ZM5.25977 12.9992H11.6884V15.142H5.25977V12.9992ZM20.4811 11.4268L10.632 21.2759L10.6167 25.8064L15.1777 25.8217L25.0268 15.9726L20.4811 11.4268ZM21.9963 15.9726L21.2513 16.7176L19.7358 15.2023L20.4811 14.457L21.9963 15.9726ZM19.7363 18.2328L15.9506 22.0186L14.4353 20.5034L18.2211 16.7176L19.7363 18.2328ZM12.7669 23.6707L12.7718 22.1665L12.9201 22.0183L14.4353 23.5336L14.2932 23.6756L12.7669 23.6707Z" fill="white"/>
</svg>
