<svg width="20" height="20" viewBox="0 0 52 55" fill="none" xmlns="http://www.w3.org/2000/svg">
<path d="M40.2264 17.4553L41.3852 16.2967C43.3047 14.377 46.4172 14.377 48.3367 16.2967C50.2564 18.2163 50.2564 21.3286 48.3367 23.2482L47.1782 24.4069M40.2264 17.4553C40.2264 17.4553 40.3714 19.9173 42.5437 22.0897C44.7162 24.2619 47.1782 24.4069 47.1782 24.4069M40.2264 17.4553L29.5749 28.1067C28.8534 28.8282 28.4927 29.1889 28.1824 29.5867C27.8167 30.0559 27.5029 30.5637 27.2469 31.1007C27.0299 31.5562 26.8684 32.0399 26.5459 33.0079L25.5129 36.1069L25.1787 37.1094M47.1782 24.4069L36.5267 35.0584C35.8052 35.7799 35.4444 36.1407 35.0467 36.4509C34.5774 36.8167 34.0697 37.1304 33.5327 37.3864C33.0772 37.6034 32.5934 37.7649 31.6254 38.0874L28.5264 39.1204L27.5239 39.4547M25.1787 37.1094L24.8444 38.1122C24.6857 38.5884 24.8097 39.1137 25.1647 39.4687C25.5197 39.8237 26.0449 39.9477 26.5212 39.7889L27.5239 39.4547M25.1787 37.1094L27.5239 39.4547" stroke="white" stroke-width="3.75"/>
<path d="M14.7764 29.8569H21.0264" stroke="white" stroke-width="3.75" stroke-linecap="round"/>
<path d="M14.7764 19.8569H31.0264" stroke="white" stroke-width="3.75" stroke-linecap="round"/>
<path d="M14.7764 39.8569H18.5264" stroke="white" stroke-width="3.75" stroke-linecap="round"/>
<path d="M44.3474 5.28586C41.4186 2.35693 36.7044 2.35693 27.2764 2.35693H22.2764C12.8483 2.35693 8.13424 2.35693 5.20529 5.28586C2.27637 8.21481 2.27637 12.9288 2.27637 22.3569V32.3569C2.27637 41.7849 2.27637 46.4992 5.20529 49.4279C8.13424 52.3569 12.8483 52.3569 22.2764 52.3569H27.2764C36.7044 52.3569 41.4186 52.3569 44.3474 49.4279C46.7051 47.0702 47.1649 43.5559 47.2546 37.3569" stroke="white" stroke-width="3.75" stroke-linecap="round"/>
</svg>
