<svg width="16" height="16" viewBox="0 0 20 21" fill="none" xmlns="http://www.w3.org/2000/svg">
<path d="M1 6.13331C1 4.45316 1 3.61308 1.32698 2.97134C1.6146 2.40686 2.07354 1.94791 2.63803 1.66029C3.27976 1.33331 4.11984 1.33331 5.8 1.33331H14.2C15.8802 1.33331 16.7202 1.33331 17.362 1.66029C17.9265 1.94791 18.3854 2.40686 18.673 2.97134C19 3.61308 19 4.45316 19 6.13331V14.5333C19 16.2135 19 17.0535 18.673 17.6953C18.3854 18.2598 17.9265 18.7187 17.362 19.0063C16.7202 19.3333 15.8802 19.3333 14.2 19.3333H5.8C4.11984 19.3333 3.27976 19.3333 2.63803 19.0063C2.07354 18.7187 1.6146 18.2598 1.32698 17.6953C1 17.0535 1 16.2135 1 14.5333V6.13331Z" stroke="black" stroke-width="2" stroke-linecap="round" stroke-linejoin="round"/>
</svg>
