<svg width="20" height="20" viewBox="0 0 61 61" fill="none" xmlns="http://www.w3.org/2000/svg">
<g clip-path="url(#clip0_4492_3845)">
<path d="M29.8305 27.4482L28.9639 30.7816H31.6805L30.7972 27.4482H29.8305Z" fill="#969696"/>
<path d="M20.1636 30.7816H24.6469L25.5303 27.4482H19.2803L20.1636 30.7816Z" fill="#969696"/>
<path d="M22.4135 39.2814L23.7635 34.1147H21.0469L22.4135 39.2814Z" fill="#969696"/>
<path d="M35.9966 30.7816H40.4799L41.3633 27.4482H35.1133L35.9966 30.7816Z" fill="#969696"/>
<path d="M38.2299 39.2814L39.5966 34.1147H36.8799L38.2299 39.2814Z" fill="#969696"/>
<path d="M30.2634 4.11475C24.9892 4.11475 19.8335 5.67872 15.4482 8.60889C11.0628 11.5391 7.64491 15.7038 5.62657 20.5765C3.60823 25.4492 3.08015 30.811 4.10908 35.9838C5.13802 41.1566 7.67778 45.9082 11.4072 49.6376C15.1366 53.367 19.8881 55.9067 25.061 56.9357C30.2338 57.9646 35.5956 57.4365 40.4682 55.4182C45.3409 53.3999 49.5057 49.9819 52.4359 45.5966C55.3661 41.2113 56.93 36.0556 56.93 30.7814C56.93 23.709 54.1205 16.9262 49.1195 11.9252C44.1186 6.92426 37.3358 4.11475 30.2634 4.11475ZM48.5967 34.1147H43.9134L40.2634 47.9814C40.1475 48.4282 39.8867 48.8238 39.5217 49.1062C39.1567 49.3887 38.7082 49.5419 38.2467 49.5419C37.7852 49.5419 37.3367 49.3887 36.9717 49.1062C36.6067 48.8238 36.3458 48.4282 36.23 47.9814L32.5634 34.1147H28.08L24.43 47.9814C24.3142 48.4282 24.0533 48.8238 23.6883 49.1062C23.3233 49.3887 22.8749 49.5419 22.4134 49.5419C21.9518 49.5419 21.5034 49.3887 21.1384 49.1062C20.7734 48.8238 20.5125 48.4282 20.3967 47.9814L16.73 34.1147H11.93C11.488 34.1147 11.0641 33.9392 10.7515 33.6266C10.439 33.314 10.2634 32.8901 10.2634 32.4481C10.2634 32.0061 10.439 31.5821 10.7515 31.2696C11.0641 30.957 11.488 30.7814 11.93 30.7814H15.8467L14.9634 27.4481H11.93C11.488 27.4481 11.0641 27.2725 10.7515 26.9599C10.439 26.6474 10.2634 26.2234 10.2634 25.7814C10.2634 25.3394 10.439 24.9155 10.7515 24.6029C11.0641 24.2903 11.488 24.1147 11.93 24.1147H14.0967L12.43 17.9814C12.2886 17.4466 12.3654 16.8774 12.6436 16.3992C12.9217 15.921 13.3785 15.5729 13.9134 15.4314C14.4482 15.29 15.0173 15.3668 15.4956 15.645C15.9738 15.9231 16.3219 16.3799 16.4634 16.9147L18.3967 24.1147H26.3967L28.2967 16.9147C28.4125 16.468 28.6734 16.0724 29.0384 15.7899C29.4034 15.5075 29.8518 15.3542 30.3134 15.3542C30.7749 15.3542 31.2233 15.5075 31.5883 15.7899C31.9533 16.0724 32.2142 16.468 32.33 16.9147L34.23 24.1147H42.23L44.13 16.9147C44.2715 16.3799 44.6196 15.9231 45.0978 15.645C45.576 15.3668 46.1452 15.29 46.68 15.4314C47.2149 15.5729 47.6716 15.921 47.9498 16.3992C48.228 16.8774 48.3048 17.4466 48.1634 17.9814L46.4967 24.1147H48.5967C49.0387 24.1147 49.4626 24.2903 49.7752 24.6029C50.0878 24.9155 50.2634 25.3394 50.2634 25.7814C50.2634 26.2234 50.0878 26.6474 49.7752 26.9599C49.4626 27.2725 49.0387 27.4481 48.5967 27.4481H45.6634L44.78 30.7814H48.5967C49.0387 30.7814 49.4626 30.957 49.7752 31.2696C50.0878 31.5821 50.2634 32.0061 50.2634 32.4481C50.2634 32.8901 50.0878 33.314 49.7752 33.6266C49.4626 33.9392 49.0387 34.1147 48.5967 34.1147Z" fill="#969696"/>
</g>
<defs>
<clipPath id="clip0_4492_3845">
<rect width="60" height="60" fill="white" transform="translate(0.263672 0.781494)"/>
</clipPath>
</defs>
</svg>
