<svg width="20" height="20" viewBox="0 0 51 51" fill="none" xmlns="http://www.w3.org/2000/svg">
<path d="M2.89063 18.4846H47.8906M37.8906 28.4881L12.8906 28.4846M21.2239 38.4859L12.8906 38.4846M12.8906 3.48462V8.48462M37.8906 3.48462V8.48462M10.8906 48.4846H39.8906C42.6909 48.4846 44.0911 48.4846 45.1606 47.9396C46.1014 47.4604 46.8664 46.6954 47.3456 45.7546C47.8906 44.6851 47.8906 43.2849 47.8906 40.4846V16.4846C47.8906 13.6843 47.8906 12.2842 47.3456 11.2147C46.8664 10.2738 46.1014 9.50894 45.1606 9.02959C44.0911 8.48462 42.6909 8.48462 39.8906 8.48462H10.8906C8.09037 8.48462 6.69023 8.48462 5.62068 9.02959C4.67985 9.50894 3.91495 10.2738 3.4356 11.2147C2.89062 12.2842 2.89063 13.6843 2.89063 16.4846V40.4846C2.89063 43.2849 2.89062 44.6851 3.4356 45.7546C3.91495 46.6954 4.67985 47.4604 5.62068 47.9396C6.69023 48.4846 8.09035 48.4846 10.8906 48.4846Z" stroke="#969696" stroke-width="5" stroke-linecap="round" stroke-linejoin="round"/>
</svg>
