<svg width="21" height="20" viewBox="0 0 21 20" fill="none" xmlns="http://www.w3.org/2000/svg">
<path id="Vector" fill-rule="evenodd" clip-rule="evenodd" d="M9.36611 2.13389C8.87798 1.64573 8.87798 0.854276 9.36611 0.366113C9.85423 -0.122038 10.6457 -0.122038 11.1339 0.366113L19.8839 9.11614C20.1183 9.35051 20.25 9.66852 20.25 10C20.25 10.3315 20.1183 10.6495 19.8839 10.8839L11.1339 19.6339C10.6457 20.122 9.85423 20.122 9.36611 19.6339C8.87798 19.1458 8.87798 18.3543 9.36611 17.8662L17.2322 10L9.36611 2.13389ZM0.616095 2.13389C0.12797 1.64573 0.12797 0.854276 0.616095 0.366113C1.10422 -0.122038 1.89572 -0.122038 2.38385 0.366113L11.1339 9.11614C11.3682 9.35051 11.5 9.66852 11.5 10C11.5 10.3315 11.3682 10.6495 11.1339 10.8839L2.38385 19.6339C1.89572 20.122 1.10422 20.122 0.616095 19.6339C0.12797 19.1458 0.12797 18.3543 0.616095 17.8662L8.48223 10L0.616095 2.13389Z" fill="#4166F5"/>
</svg>
