<svg width="16" height="16" viewBox="0 0 29 29" fill="none" xmlns="http://www.w3.org/2000/svg">
<path d="M1.38951 25.0402C0.686571 25.7432 0.686571 26.8827 1.38951 27.5857C2.09244 28.2886 3.23215 28.2886 3.93509 27.5857L1.38951 25.0402ZM15.935 15.5857C16.638 14.8827 16.638 13.7432 15.935 13.0402C15.2321 12.3373 14.0925 12.3373 13.3896 13.0402L15.935 15.5857ZM13.3896 13.0402C12.6866 13.7432 12.6866 14.8827 13.3896 15.5857C14.0925 16.2886 15.2321 16.2886 15.935 15.5857L13.3896 13.0402ZM27.935 3.58573C28.638 2.88279 28.638 1.74308 27.935 1.04014C27.2321 0.337205 26.0925 0.337205 25.3896 1.04014L27.935 3.58573ZM15.935 13.0402C15.2321 12.3373 14.0925 12.3373 13.3896 13.0402C12.6866 13.7432 12.6866 14.8827 13.3896 15.5857L15.935 13.0402ZM25.3896 27.5857C26.0925 28.2886 27.2321 28.2886 27.935 27.5857C28.638 26.8827 28.638 25.7432 27.935 25.0402L25.3896 27.5857ZM13.3896 15.5857C14.0925 16.2886 15.2321 16.2886 15.935 15.5857C16.638 14.8827 16.638 13.7432 15.935 13.0402L13.3896 15.5857ZM3.93509 1.04014C3.23215 0.337205 2.09244 0.337205 1.38951 1.04014C0.686571 1.74308 0.686571 2.88279 1.38951 3.58573L3.93509 1.04014ZM3.93509 27.5857L15.935 15.5857L13.3896 13.0402L1.38951 25.0402L3.93509 27.5857ZM15.935 15.5857L27.935 3.58573L25.3896 1.04014L13.3896 13.0402L15.935 15.5857ZM13.3896 15.5857L25.3896 27.5857L27.935 25.0402L15.935 13.0402L13.3896 15.5857ZM15.935 13.0402L3.93509 1.04014L1.38951 3.58573L13.3896 15.5857L15.935 13.0402Z" fill="#000"/>
</svg>
