<svg width="20" height="20" viewBox="0 0 24 25" fill="none" xmlns="http://www.w3.org/2000/svg">
<path d="M17.8601 18.4733L17.4201 18.7933L16.9401 19.0833L16.4301 19.3533C16.2601 19.4333 16.0801 19.5233 15.8901 19.5933L15.3301 19.8133L14.7301 19.9933L14.1001 20.1333L13.4301 20.2433L12.7301 20.3133L12.0001 20.3333H11.2701L10.5701 20.2633L9.90011 20.1333L9.27011 19.9933L8.67011 19.8133L8.11011 19.5933C7.92011 19.5233 7.74011 19.4333 7.57011 19.3533L7.06011 19.0833L6.58011 18.7933L6.14011 18.4733C5.99022 18.3721 5.84662 18.2619 5.71011 18.1433L5.32011 17.8033L5.00011 17.4433L4.66011 17.0833C4.55011 16.9533 4.44011 16.8333 4.34011 16.7033L4.00011 16.3333L3.73011 15.9633L3.48011 15.5833C3.40011 15.4633 3.33011 15.3433 3.26011 15.2233L3.05011 14.8633L2.87011 14.5233L2.71011 14.1933L2.56011 13.8733L2.44011 13.5833C2.44011 13.4933 2.36011 13.4033 2.33011 13.3133L2.24011 13.0733C2.24011 12.9933 2.18011 12.9233 2.16011 12.8533L2.10011 12.6733C2.09684 12.6267 2.09684 12.5799 2.10011 12.5333C2.09745 12.4967 2.09745 12.4599 2.10011 12.4233V12.3333V12.2633C2.09745 12.2267 2.09745 12.1899 2.10011 12.1533L2.16011 12.0133L2.24011 11.8333C2.24011 11.7633 2.31011 11.6933 2.34011 11.6133L2.44011 11.3333C2.44011 11.2433 2.53011 11.1533 2.58011 11.0633L2.73011 10.7733L2.91011 10.4533C3.00011 10.3333 3.00011 10.2633 3.10011 10.1433L3.32011 9.80332C3.39011 9.68332 3.47011 9.56332 3.55011 9.44332L3.81011 9.08332C3.89011 8.95332 3.99011 8.83332 4.08011 8.70332L4.37011 8.33332L4.69011 7.96332L5.00011 7.58332L5.35011 7.22332L5.73011 6.86332L6.13011 6.52332" stroke="#969696" stroke-width="2.5" stroke-linecap="round"/>
<path d="M10.1396 4.53331L10.7296 4.42331L11.3596 4.33331H11.9996H12.6396L13.2696 4.40331L13.8596 4.51331L14.4396 4.65331L14.9896 4.83331L15.5196 5.05331C15.6896 5.12331 15.8596 5.21331 16.0296 5.29331L16.5196 5.56331L16.9796 5.85331L17.4196 6.17331L17.8396 6.50331L18.2396 6.84331L18.6196 7.20331L18.9696 7.56331L19.3096 7.94331C19.4196 8.06331 19.5196 8.18331 19.6196 8.31331C19.7196 8.44331 19.8196 8.56331 19.9196 8.68331C20.0196 8.80331 20.1096 8.93331 20.1896 9.06331L20.4496 9.42331C20.5296 9.54331 20.6096 9.66331 20.6796 9.78331L20.8996 10.1233C20.9596 10.2433 21.0296 10.3533 21.0896 10.4533L21.2696 10.7733L21.4196 11.0633C21.4196 11.1533 21.5196 11.2433 21.5596 11.3333L21.6796 11.5733C21.6796 11.6533 21.7496 11.7233 21.7796 11.7933L21.8596 11.9733L21.9196 12.1133C21.9223 12.1499 21.9223 12.1867 21.9196 12.2233L21.9996 12.3333V12.4433C22.0023 12.4799 22.0023 12.5167 21.9996 12.5533C22.0029 12.5999 22.0029 12.6467 21.9996 12.6933L21.9396 12.8733C21.9396 12.9433 21.8896 13.0133 21.8596 13.0933C21.8296 13.1733 21.7996 13.2533 21.7696 13.3333C21.7396 13.4133 21.6996 13.5133 21.6596 13.6033L21.5396 13.8933L21.3896 14.2133L21.2296 14.5433L21.0496 14.8833L20.8396 15.2433" stroke="#969696" stroke-width="2.5" stroke-linecap="round"/>
<path d="M14.8303 15.1633C14.0797 15.9139 13.0617 16.3355 12.0003 16.3355C10.9388 16.3355 9.92083 15.9139 9.17027 15.1633C8.41971 14.4127 7.99805 13.3948 7.99805 12.3333C7.99805 11.2718 8.41971 10.2539 9.17027 9.5033" stroke="#969696" stroke-width="2.5" stroke-linecap="round"/>
<path d="M2 2.33331L22 22.3333" stroke="#969696" stroke-width="2.5" stroke-linecap="round"/>
</svg>
