<svg width="20" height="16" viewBox="0 0 30 24" fill="none" xmlns="http://www.w3.org/2000/svg">
<path d="M21.6668 0H21.2668L1.26676 5.86667C0.98581 5.95468 0.741892 6.13321 0.573056 6.37441C0.40422 6.6156 0.319963 6.90589 0.333427 7.2V13.2C0.339958 13.4896 0.432081 13.7707 0.598181 14.008C0.76428 14.2453 0.996918 14.4281 1.26676 14.5333L21.2668 20.4H21.6668C22.0204 20.4 22.3595 20.2595 22.6096 20.0095C22.8596 19.7594 23.0001 19.4203 23.0001 19.0667V1.33333C23.0001 0.979711 22.8596 0.640573 22.6096 0.390524C22.3595 0.140476 22.0204 0 21.6668 0ZM11.7334 18.8L4.60009 16.6667L5.46676 22.2667C5.5164 22.744 5.7418 23.1858 6.09914 23.5062C6.45647 23.8266 6.92018 24.0026 7.40009 24H10.4001C10.6676 23.9957 10.931 23.9339 11.1726 23.8189C11.4141 23.7039 11.6281 23.5383 11.8001 23.3333C12.0035 23.0967 12.1559 22.8206 12.2477 22.5223C12.3394 22.2241 12.3686 21.9101 12.3334 21.6L11.7334 18.8Z" fill="#D73B3E"/>
<path d="M25.6668 6.19996C25.8758 6.2196 26.0857 6.17296 26.2668 6.06663L28.9334 4.73329C29.2517 4.57416 29.4937 4.29512 29.6062 3.95756C29.7188 3.61999 29.6926 3.25155 29.5334 2.93329C29.3743 2.61503 29.0953 2.37302 28.7577 2.2605C28.4201 2.14798 28.0517 2.17416 27.7334 2.33329L25.0668 3.66663C24.9084 3.74457 24.7671 3.85318 24.6511 3.98615C24.535 4.11913 24.4465 4.27382 24.3907 4.44126C24.3349 4.6087 24.3129 4.78556 24.3259 4.96157C24.339 5.13759 24.3869 5.30926 24.4668 5.46663C24.5843 5.68385 24.7573 5.86611 24.968 5.9949C25.1788 6.1237 25.4198 6.19444 25.6668 6.19996Z" fill="#D73B3E"/>
<path d="M28.9334 15.7332L26.2668 14.3999C25.954 14.25 25.5967 14.2216 25.2641 14.3201C24.9316 14.4187 24.6474 14.6371 24.4668 14.9332C24.3869 15.0906 24.339 15.2623 24.3259 15.4383C24.3129 15.6143 24.3349 15.7911 24.3907 15.9586C24.4465 16.126 24.535 16.2807 24.6511 16.4137C24.7671 16.5467 24.9084 16.6553 25.0668 16.7332L27.7334 18.0666C27.9145 18.1729 28.1244 18.2195 28.3334 18.1999C28.5804 18.1944 28.8215 18.1236 29.0322 17.9948C29.243 17.866 29.4159 17.6838 29.5334 17.4666C29.6121 17.3141 29.659 17.1473 29.6712 16.9763C29.6835 16.8052 29.6609 16.6334 29.6048 16.4713C29.5487 16.3093 29.4603 16.1603 29.3449 16.0334C29.2295 15.9065 29.0895 15.8044 28.9334 15.7332Z" fill="#D73B3E"/>
<path d="M25.6663 11.5334H28.333C28.6866 11.5334 29.0258 11.3929 29.2758 11.1428C29.5259 10.8928 29.6663 10.5537 29.6663 10.2C29.6663 9.84641 29.5259 9.50727 29.2758 9.25722C29.0258 9.00718 28.6866 8.8667 28.333 8.8667H25.6663C25.3127 8.8667 24.9736 9.00718 24.7235 9.25722C24.4735 9.50727 24.333 9.84641 24.333 10.2C24.333 10.5537 24.4735 10.8928 24.7235 11.1428C24.9736 11.3929 25.3127 11.5334 25.6663 11.5334Z" fill="#D73B3E"/>
</svg>
